<svg xmlns="http://www.w3.org/2000/svg" width="32" height="48" viewBox="0 0 32 48">
  <rect x="9" y="22" width="2.5" height="20" fill="#8a7a4a" rx="0.5"/>
  <rect x="14" y="18" width="2.5" height="24" fill="#7a6a3a" rx="0.5"/>
  <rect x="19" y="20" width="2.5" height="22" fill="#8a7a4a" rx="0.5"/>
  <rect x="23" y="24" width="2" height="18" fill="#7a6a3a" rx="0.5"/>
  <ellipse cx="10.5" cy="15" rx="4" ry="6" fill="#d4a820"/>
  <ellipse cx="10" cy="13" rx="3.5" ry="3" fill="#e8c830"/>
  <ellipse cx="15.5" cy="10" rx="4.5" ry="7" fill="#d4a820"/>
  <ellipse cx="15" cy="8" rx="4" ry="3.5" fill="#e8c830"/>
  <ellipse cx="20.5" cy="13" rx="4" ry="6" fill="#d4a820"/>
  <ellipse cx="20" cy="11" rx="3.5" ry="3" fill="#e8c830"/>
  <ellipse cx="24" cy="18" rx="3.5" ry="5" fill="#d4a820"/>
  <ellipse cx="24" cy="16" rx="3" ry="2.5" fill="#e8c830"/>
  <circle cx="9" cy="14" r="1" fill="#cca020"/>
  <circle cx="12" cy="12" r="1" fill="#cca020"/>
  <circle cx="14" cy="8" r="1.2" fill="#cca020"/>
  <circle cx="17" cy="7" r="1" fill="#cca020"/>
  <circle cx="19" cy="10" r="1.2" fill="#cca020"/>
  <circle cx="22" cy="12" r="1" fill="#cca020"/>
  <circle cx="23" cy="17" r="0.8" fill="#cca020"/>
  <line x1="10" y1="24" x2="8" y2="20" stroke="#e8c830" stroke-width="0.8" opacity="0.5"/>
  <line x1="15" y1="20" x2="17" y2="16" stroke="#e8c830" stroke-width="0.8" opacity="0.5"/>
  <line x1="20" y1="22" x2="18" y2="18" stroke="#e8c830" stroke-width="0.8" opacity="0.5"/>
  <line x1="24" y1="26" x2="26" y2="22" stroke="#e8c830" stroke-width="0.8" opacity="0.5"/>
</svg>
