<svg xmlns="http://www.w3.org/2000/svg" width="32" height="48" viewBox="0 0 32 48">
  <rect x="10" y="22" width="2.5" height="20" fill="#b89850" rx="0.5"/>
  <rect x="14.5" y="18" width="2.5" height="24" fill="#a88840" rx="0.5"/>
  <rect x="19" y="20" width="2.5" height="22" fill="#b89850" rx="0.5"/>
  <rect x="23" y="24" width="2" height="18" fill="#a88840" rx="0.5"/>
  <!-- 小麦穗头部 -->
  <ellipse cx="11" cy="15" rx="3.5" ry="5" fill="#d4a820"/>
  <ellipse cx="11" cy="14" rx="3" ry="3" fill="#e8c830"/>
  <ellipse cx="16" cy="10" rx="4" ry="6" fill="#d4a820"/>
  <ellipse cx="16" cy="9" rx="3.5" ry="3.5" fill="#e8c830"/>
  <ellipse cx="20.5" cy="14" rx="3.5" ry="5" fill="#d4a820"/>
  <ellipse cx="20.5" cy="13" rx="3" ry="3" fill="#e8c830"/>
  <ellipse cx="24" cy="18" rx="3" ry="4.5" fill="#d4a820"/>
  <ellipse cx="24" cy="17" rx="2.5" ry="2.5" fill="#e8c830"/>
  <!-- 麦芒 (awns)  -->
  <line x1="8" y1="14" x2="5" y2="9" stroke="#c89810" stroke-width="0.8"/>
  <line x1="10" y1="11" x2="8" y2="6" stroke="#c89810" stroke-width="0.8"/>
  <line x1="13" y1="9" x2="12" y2="4" stroke="#c89810" stroke-width="0.8"/>
  <line x1="16" y1="6" x2="16" y2="1" stroke="#c89810" stroke-width="0.8"/>
  <line x1="19" y1="9" x2="20" y2="4" stroke="#c89810" stroke-width="0.8"/>
  <line x1="22" y1="12" x2="24" y2="7" stroke="#c89810" stroke-width="0.8"/>
  <line x1="24" y1="16" x2="27" y2="12" stroke="#c89810" stroke-width="0.8"/>
  <line x1="9" y1="16" x2="6" y2="13" stroke="#c89810" stroke-width="0.6"/>
  <line x1="14" y1="14" x2="12" y2="10" stroke="#c89810" stroke-width="0.6"/>
  <line x1="18" y1="12" x2="19" y2="8" stroke="#c89810" stroke-width="0.6"/>
  <line x1="22" y1="16" x2="24" y2="13" stroke="#c89810" stroke-width="0.6"/>
</svg>
