<svg xmlns="http://www.w3.org/2000/svg" width="96" height="64" viewBox="0 0 96 64">
  <rect x="6" y="24" width="84" height="36" fill="#8a6a3a"/>
  <polygon points="2,26 48,4 94,26" fill="#6a4a2a"/>
  <rect x="6" y="24" width="84" height="4" fill="#9a7a4a"/>
  <rect x="38" y="36" width="20" height="24" fill="#5a3a1a"/>
  <rect x="40" y="38" width="6" height="8" fill="#3a2a0a"/>
  <rect x="14" y="30" width="14" height="14" fill="#6a5a3a"/>
  <rect x="16" y="32" width="4" height="4" fill="#8a7a5a"/>
  <rect x="22" y="32" width="4" height="4" fill="#8a7a5a"/>
  <rect x="68" y="30" width="14" height="14" fill="#6a5a3a"/>
  <rect x="70" y="32" width="4" height="4" fill="#8a7a5a"/>
  <rect x="76" y="32" width="4" height="4" fill="#8a7a5a"/>
  <rect x="14" y="48" width="8" height="12" fill="#6a4a2a"/>
  <rect x="74" y="48" width="8" height="12" fill="#6a4a2a"/>
  <rect x="6" y="56" width="84" height="4" fill="#7a5a3a"/>
</svg>
