<svg xmlns="http://www.w3.org/2000/svg" width="96" height="64" viewBox="0 0 96 64">
  <rect x="4" y="20" width="88" height="40" fill="#7a5a3a"/>
  <rect x="4" y="20" width="88" height="6" fill="#8a6a4a"/>
  <rect x="8" y="6" width="80" height="18" fill="#8a6a4a"/>
  <rect x="8" y="6" width="80" height="4" fill="#9a7a5a"/>
  <polygon points="4,8 48,0 92,8" fill="#6a4a2a"/>
  <rect x="20" y="10" width="56" height="8" fill="#6a4a2a"/>
  <rect x="26" y="12" width="6" height="6" fill="#5a3a1a"/>
  <rect x="38" y="12" width="6" height="6" fill="#5a3a1a"/>
  <rect x="50" y="12" width="6" height="6" fill="#5a3a1a"/>
  <rect x="62" y="12" width="6" height="6" fill="#5a3a1a"/>
  <rect x="40" y="30" width="16" height="30" fill="#5a3a1a"/>
  <rect x="42" y="32" width="4" height="6" fill="#3a2a0a"/>
  <rect x="50" y="32" width="4" height="6" fill="#3a2a0a"/>
  <rect x="12" y="30" width="12" height="12" fill="#6a5a3a"/>
  <rect x="14" y="32" width="3" height="3" fill="#8a7a5a"/>
  <rect x="19" y="32" width="3" height="3" fill="#8a7a5a"/>
  <rect x="72" y="30" width="12" height="12" fill="#6a5a3a"/>
  <rect x="74" y="32" width="3" height="3" fill="#8a7a5a"/>
  <rect x="79" y="32" width="3" height="3" fill="#8a7a5a"/>
  <rect x="12" y="48" width="10" height="12" fill="#5a4a2a"/>
  <rect x="74" y="48" width="10" height="12" fill="#5a4a2a"/>
  <rect x="4" y="56" width="88" height="4" fill="#6a4a2a"/>
  <rect x="42" y="52" width="12" height="8" fill="#3a2a0a"/>
  <rect x="44" y="54" width="8" height="6" fill="#5a3a1a"/>
  <circle cx="48" cy="6" r="2" fill="#d4a843"/>
</svg>
